<svg width="150" height="75" viewBox="0 0 150 75" fill="none" xmlns="http://www.w3.org/2000/svg">
<g clip-path="url(#clip0_200_302)">
<path d="M77.0182 9.42871C83.1817 8.69686 89.3445 8.05471 95.5695 8.30941C108.47 8.83674 120.908 11.244 132.367 17.5079C137.981 20.5751 142.924 24.4497 146.44 29.9207C151.649 38.0286 151.108 47.3454 145.03 54.8721C138.993 62.3556 130.981 66.876 122.038 69.7388C100.136 76.7528 78.4282 76.3006 57.0929 67.3423C53.2219 65.7171 49.5949 63.6149 46.3626 60.8883C46.0899 60.1852 46.5132 59.6721 46.8719 59.1735C51.1662 53.1966 54.3269 46.5633 57.8426 40.138C60.458 35.3595 63.1199 30.5988 65.4877 25.6874C66.1155 24.3851 66.7218 23.0685 66.9693 21.6407C67.242 20.0442 66.503 19.2514 64.8921 19.316C64.0742 19.3482 63.2849 19.5707 62.4885 19.7357C59.7548 20.2989 59.8481 20.324 59.2956 23.1008C58.7897 25.6372 57.57 27.9332 56.3502 30.1898C52.0883 38.068 47.8801 45.9714 43.6038 53.8424C43.08 54.8039 42.7714 55.977 41.5517 56.3931C38.7642 53.3832 36.7874 49.932 35.8044 45.9319C35.9228 44.9023 36.852 44.583 37.5157 44.0736C38.9435 42.9829 40.0593 41.6556 40.7911 40.0233C41.0889 39.3595 41.3723 38.6349 40.8521 37.7954C39.5283 38.416 38.5202 39.4743 37.2717 40.1524C36.6475 40.4932 36.1452 41.2035 35.2734 40.8663C35.4313 34.4805 38.4126 29.3826 42.7607 25.0166C49.5626 18.1931 58.0364 14.3508 67.1559 11.7355C68.0025 13.1633 69.1398 13.2171 70.4959 12.4925C71.9273 11.7247 73.4305 11.0933 74.7829 10.1749C75.45 9.72286 76.1137 9.20626 77.0182 9.42871Z" fill="black"/>
<path d="M35.2727 40.8705C37.0198 39.6794 38.7776 38.5099 40.5068 37.2901C41.2746 36.7484 41.5365 36.8848 41.6261 37.8211C41.8378 39.97 40.7185 41.5414 39.366 42.9369C38.2897 44.0455 36.9982 44.9423 35.8036 45.9325C30.3361 49.0537 24.6105 51.486 18.3323 52.4224C15.778 52.8026 13.1985 52.9066 10.6478 52.5551C2.56866 51.4465 -1.37763 45.7352 0.434077 37.6094C2.68705 27.4854 8.14012 19.2304 15.778 12.3604C21.7153 7.0221 28.3021 2.77447 36.1982 0.944827C40.4422 -0.038161 44.7509 -0.490198 49.0201 0.769027C51.1941 1.41119 53.465 2.25427 53.9744 4.82295C54.4839 7.38445 52.7332 9.006 50.9645 10.4769C50.1035 11.1908 49.1779 11.8222 48.1698 12.5756C47.8398 11.6034 47.5886 10.7854 47.2837 9.98902C45.8056 6.14316 42.8531 4.36374 38.7669 4.68662C35.2978 4.95927 32.1659 6.15392 29.3317 8.0697C20.0149 14.3694 13.6865 22.897 10.5545 33.7313C10.2424 34.804 10.0666 35.9341 9.98408 37.0498C9.51773 43.3961 13.1663 46.9083 19.5485 46.485C25.3424 46.1011 30.4582 43.927 35.2727 40.8705Z" fill="#BA0B27"/>
<path d="M41.5471 56.393C45.9454 48.3139 50.3581 40.2491 54.7277 32.1521C55.9439 29.8955 57.031 27.5708 58.1503 25.264C58.6166 24.3062 59.1799 23.2694 58.9646 22.2218C58.5233 20.0765 59.7934 19.7141 61.4041 19.4845C62.3297 19.3517 63.2338 19.0755 64.1557 18.9033C66.9756 18.3795 68.0913 19.6029 67.3092 22.3545C66.6348 24.7187 65.5226 26.8964 64.3387 29.0273C58.4193 39.6895 53.2783 50.7893 46.3652 60.8882C42.792 65.2363 38.6484 68.8992 33.5684 71.4033C30.4366 72.9495 27.1396 73.85 23.6023 73.4087C22.8058 73.3083 21.9915 73.1038 21.2632 72.7773C18.2245 71.4105 17.7869 68.8382 20.1941 66.535C20.8686 65.8892 21.6256 65.3116 22.4076 64.8058C23.5556 64.0668 24.7646 63.421 26.0131 62.6963C26.3503 63.7582 25.6902 64.4973 25.6006 65.3404C25.3673 67.5216 26.6553 68.9781 28.8472 68.9135C30.8311 68.8561 32.4312 67.909 33.9093 66.7108C37.339 63.9304 39.5345 60.2245 41.5471 56.393Z" fill="#BA0B27"/>
<path d="M77.0183 9.4296C74.6214 10.678 72.4438 12.3391 69.8823 13.2718C67.9916 13.9606 67.3674 13.5911 67.1558 11.7364C67.45 11.0476 67.7262 10.3552 68.0383 9.67717C68.885 7.85827 69.8464 6.65645 72.2321 6.17931C76.8675 5.25014 81.0788 2.93259 85.2008 0.597108C85.4198 0.475132 85.578 0.27781 86.073 0.600688C84.645 3.22318 82.5998 5.28243 80.2433 7.07619C79.188 7.8834 78.0945 8.6475 77.0183 9.4296Z" fill="#BA0B27"/>
<path d="M76.5516 39.8452C76.3071 39.8659 76.0603 39.9157 75.8113 39.9946C75.5623 40.0693 75.3711 40.1897 75.2384 40.3557C75.1514 40.4553 75.0621 40.6027 74.9705 40.7977C74.8834 40.9928 74.7775 41.2231 74.653 41.4888C74.5285 41.7544 74.4019 42.0159 74.2733 42.2732C74.1446 42.5305 73.9786 42.7879 73.7753 43.0452C73.9412 43.2444 74.1446 43.4623 74.3854 43.6988C74.626 43.9312 74.8316 44.0994 75.0014 44.2031C75.1679 44.2986 75.4018 44.3795 75.7048 44.4459C76.0123 44.5123 76.2636 44.5497 76.4586 44.5579V45H73.8935L72.9659 43.9417C72.829 44.0911 72.6712 44.2467 72.4927 44.4085C72.3184 44.5663 72.1337 44.7032 71.9387 44.8195C71.7229 44.944 71.505 45.0415 71.285 45.112C71.0692 45.1826 70.8139 45.2179 70.5193 45.2179C70.2121 45.2179 69.907 45.1723 69.6041 45.0809C69.3011 44.9938 69.0251 44.8526 68.7761 44.6576C68.5354 44.4667 68.3403 44.2218 68.1909 43.923C68.0415 43.6241 67.9668 43.2672 67.9668 42.8521C67.9668 42.3375 68.1016 41.8726 68.3714 41.4577C68.6453 41.0384 69.1537 40.5943 69.8967 40.1254C69.5605 39.6813 69.299 39.2974 69.1123 38.9736C68.9255 38.6499 68.8321 38.2867 68.8321 37.8841C68.8321 37.5978 68.8882 37.3363 69.0002 37.0997C69.1164 36.859 69.2783 36.6494 69.4858 36.4709C69.6767 36.3091 69.9092 36.1825 70.1831 36.0912C70.457 35.9998 70.7351 35.9542 71.0173 35.9542C71.3493 35.9542 71.6398 36.0082 71.8889 36.1161C72.142 36.2198 72.3475 36.3568 72.5052 36.5269C72.6505 36.6847 72.7605 36.8673 72.8352 37.0748C72.914 37.2823 72.9535 37.4899 72.9535 37.6974C72.9535 38.1954 72.7979 38.625 72.4865 38.986C72.1794 39.343 71.754 39.6646 71.2103 39.9511C71.6004 40.4782 71.9823 40.9596 72.3558 41.3953C72.7294 41.827 73.0883 42.2524 73.4328 42.6716C73.7109 42.2275 73.9267 41.8104 74.0803 41.4203C74.2339 41.026 74.3107 40.6795 74.3107 40.3806C74.3107 40.2478 74.2131 40.144 74.018 40.0693C73.8271 39.9904 73.5615 39.9157 73.2212 39.8452V39.4032H76.5516V39.8452ZM72.1504 37.8219C72.1504 37.3985 72.057 37.0748 71.8702 36.8507C71.6834 36.6224 71.4179 36.5083 71.0733 36.5083C70.8783 36.5083 70.7164 36.5477 70.5878 36.6265C70.4591 36.7054 70.3491 36.805 70.2577 36.9254C70.1748 37.0416 70.1146 37.1661 70.0772 37.2989C70.0399 37.4317 70.0212 37.55 70.0212 37.6538C70.0212 37.9402 70.0959 38.2307 70.2453 38.5254C70.3948 38.8159 70.6272 39.1687 70.9426 39.5837C71.3701 39.343 71.6772 39.0836 71.8639 38.8055C72.0549 38.5233 72.1504 38.1954 72.1504 37.8219ZM72.6359 43.5805C72.25 43.0908 71.8141 42.5554 71.3286 41.9743C70.8472 41.3891 70.4611 40.8952 70.1706 40.4926C69.8344 40.7251 69.5958 40.999 69.4547 41.3144C69.3177 41.6257 69.2492 41.9827 69.2492 42.3853C69.2492 42.9497 69.409 43.4187 69.7286 43.7922C70.0523 44.1616 70.4839 44.3463 71.0235 44.3463C71.3265 44.3463 71.6233 44.2819 71.9138 44.1533C72.2085 44.0205 72.4492 43.8296 72.6359 43.5805ZM88.4863 45H84.8068V44.5579C85.1308 44.5372 85.3986 44.4957 85.6101 44.4334C85.8261 44.3712 85.9341 44.2944 85.9341 44.2031C85.9341 44.1658 85.9296 44.1201 85.9213 44.0662C85.9131 44.0122 85.9003 43.9645 85.8838 43.923L85.1496 41.9432H82.0551C81.9388 42.2338 81.8436 42.487 81.7686 42.7027C81.6981 42.9186 81.6343 43.1178 81.5758 43.3004C81.5218 43.4788 81.4844 43.6241 81.4641 43.7362C81.4431 43.8483 81.4326 43.9396 81.4326 44.0101C81.4326 44.1761 81.5631 44.3048 81.8248 44.3961C82.0866 44.4874 82.3813 44.5414 82.7091 44.5579V45H79.3844V44.5579C79.4924 44.5497 79.6274 44.5268 79.7894 44.4895C79.9514 44.448 80.0841 44.3941 80.1876 44.3276C80.3533 44.2156 80.4824 44.0994 80.5738 43.979C80.6646 43.8545 80.7538 43.6843 80.8416 43.4685C81.2856 42.3604 81.7753 41.1152 82.3108 39.7331C82.8456 38.3511 83.3233 37.1205 83.7426 36.0414H84.2406L87.1851 43.6615C87.2473 43.8234 87.3178 43.9541 87.3966 44.0537C87.4753 44.1533 87.5856 44.2508 87.7266 44.3463C87.8226 44.4044 87.9471 44.4542 88.1001 44.4957C88.2538 44.533 88.3828 44.5538 88.4863 44.5579V45ZM84.9253 41.3891L83.5866 37.9651L82.2733 41.3891H84.9253ZM92.6946 41.993C92.8648 42.1424 92.9953 42.3147 93.0868 42.5098C93.1783 42.7048 93.2241 42.9435 93.2241 43.2257C93.2241 43.7943 93.0103 44.2591 92.5828 44.6203C92.1591 44.9813 91.6093 45.1618 90.9328 45.1618C90.5758 45.1618 90.2458 45.0975 89.9428 44.9689C89.6443 44.8402 89.4306 44.7219 89.3016 44.614L89.1771 45.0187H88.7106L88.6483 42.8833H89.0781C89.1111 43.0452 89.1816 43.234 89.2896 43.4498C89.3976 43.6657 89.5281 43.8607 89.6818 44.035C89.8438 44.2177 90.0366 44.3712 90.2608 44.4957C90.4888 44.6203 90.7438 44.6825 91.0266 44.6825C91.4248 44.6825 91.7316 44.5933 91.9476 44.4148C92.1636 44.2321 92.2716 43.9728 92.2716 43.6366C92.2716 43.4623 92.2363 43.3129 92.1658 43.1884C92.0991 43.0597 91.9993 42.9476 91.8666 42.8521C91.7301 42.7567 91.5621 42.6716 91.3626 42.5969C91.1631 42.5181 90.9411 42.4413 90.6966 42.3666C90.5016 42.3085 90.2833 42.2296 90.0426 42.13C89.8063 42.0262 89.6031 41.9059 89.4328 41.7689C89.2498 41.6236 89.1006 41.4452 88.9843 41.2335C88.8681 41.0218 88.8103 40.7728 88.8103 40.4864C88.8103 39.9842 88.9971 39.5588 89.3706 39.2102C89.7441 38.8615 90.2443 38.6872 90.8706 38.6872C91.1113 38.6872 91.3566 38.7184 91.6056 38.7806C91.8583 38.8429 92.0638 38.9176 92.2213 39.0047L92.3646 38.681H92.8131L92.9061 40.6546H92.4771C92.3901 40.2146 92.2011 39.8577 91.9101 39.5837C91.6243 39.3057 91.2733 39.1666 90.8586 39.1666C90.5181 39.1666 90.2503 39.2517 90.0553 39.4219C89.8603 39.592 89.7628 39.7975 89.7628 40.0382C89.7628 40.225 89.7936 40.3806 89.8558 40.5051C89.9226 40.6297 90.0201 40.7355 90.1483 40.8226C90.2728 40.9057 90.4288 40.9845 90.6156 41.0592C90.8061 41.1298 91.0408 41.2107 91.3191 41.302C91.5928 41.3891 91.8501 41.4908 92.0908 41.6071C92.3361 41.7232 92.5371 41.8519 92.6946 41.993ZM100.141 41.8685C100.141 42.3001 100.072 42.7255 99.9351 43.1448C99.7978 43.5598 99.6028 43.9126 99.3501 44.2031C99.0636 44.5351 98.7313 44.7821 98.3541 44.944C97.9761 45.1058 97.5531 45.1867 97.0836 45.1867C96.6936 45.1867 96.3223 45.1141 95.9691 44.9689C95.6166 44.8195 95.3031 44.6036 95.0293 44.3214C94.7593 44.0433 94.5441 43.705 94.3821 43.3066C94.2238 42.904 94.1451 42.4537 94.1451 41.9557C94.1451 40.9969 94.4233 40.2125 94.9798 39.6024C95.5401 38.9923 96.2721 38.6872 97.1773 38.6872C98.0361 38.6872 98.7441 38.9778 99.2998 39.5588C99.8601 40.1357 100.141 40.9057 100.141 41.8685ZM98.8521 41.881C98.8521 41.5697 98.8206 41.2418 98.7583 40.8973C98.6961 40.5487 98.6031 40.254 98.4786 40.0133C98.3458 39.756 98.1711 39.5505 97.9551 39.397C97.7398 39.2392 97.4758 39.1604 97.1646 39.1604C96.8451 39.1604 96.5713 39.2392 96.3433 39.397C96.1191 39.5547 95.9361 39.7705 95.7951 40.0444C95.6623 40.2976 95.5686 40.586 95.5153 40.9098C95.4613 41.2335 95.4343 41.5468 95.4343 41.8498C95.4343 42.2483 95.4651 42.6177 95.5273 42.958C95.5941 43.2942 95.6976 43.5951 95.8386 43.8607C95.9796 44.1263 96.1558 44.3359 96.3681 44.4895C96.5833 44.6389 96.8496 44.7136 97.1646 44.7136C97.6836 44.7136 98.0946 44.4625 98.3976 43.9603C98.7006 43.4581 98.8521 42.765 98.8521 41.881ZM103.87 45.1618C102.982 45.1618 102.286 44.8672 101.784 44.2778C101.282 43.6885 101.031 42.8978 101.031 41.9059C101.031 41.4742 101.098 41.0716 101.23 40.6981C101.367 40.3204 101.564 39.978 101.821 39.6709C102.067 39.3762 102.373 39.1396 102.743 38.9611C103.112 38.7786 103.515 38.6872 103.951 38.6872C104.552 38.6872 105.042 38.8325 105.42 39.1231C105.798 39.4094 105.986 39.8016 105.986 40.2997C105.986 40.5072 105.937 40.6919 105.837 40.8538C105.737 41.0115 105.574 41.0903 105.345 41.0903C105.1 41.0903 104.909 41.0281 104.773 40.9036C104.64 40.7791 104.573 40.64 104.573 40.4864C104.573 40.2997 104.598 40.1088 104.648 39.9137C104.698 39.7144 104.727 39.5692 104.735 39.4779C104.66 39.3493 104.548 39.2641 104.399 39.2227C104.254 39.177 104.096 39.1542 103.926 39.1542C103.726 39.1542 103.536 39.1978 103.353 39.2849C103.174 39.3679 103 39.5236 102.83 39.7518C102.676 39.9593 102.552 40.2395 102.457 40.5922C102.361 40.945 102.313 41.3663 102.313 41.8561C102.313 42.628 102.484 43.2589 102.824 43.7486C103.168 44.2342 103.618 44.477 104.175 44.477C104.578 44.477 104.914 44.3795 105.184 44.1844C105.457 43.9894 105.71 43.6968 105.943 43.3066L106.342 43.5681C106.067 44.0578 105.706 44.4459 105.258 44.7323C104.81 45.0187 104.347 45.1618 103.87 45.1618ZM109.803 45H106.833V44.5891C106.929 44.5808 107.026 44.5725 107.125 44.5642C107.23 44.5559 107.319 44.5393 107.393 44.5144C107.509 44.477 107.595 44.4127 107.649 44.3214C107.707 44.2259 107.736 44.1035 107.736 43.9541V40.1627C107.736 40.0299 107.704 39.9095 107.642 39.8016C107.584 39.6895 107.501 39.5962 107.393 39.5215C107.314 39.4717 107.2 39.4302 107.051 39.397C106.902 39.3596 106.765 39.3368 106.64 39.3285V38.9238L108.807 38.7868L108.894 38.874V43.8794C108.894 44.0246 108.921 44.145 108.975 44.2405C109.033 44.3359 109.122 44.4065 109.243 44.4521C109.333 44.4895 109.423 44.5206 109.51 44.5455C109.597 44.5663 109.695 44.5808 109.803 44.5891V45ZM109.018 36.3651C109.018 36.6016 108.94 36.8092 108.781 36.9877C108.628 37.162 108.437 37.2491 108.209 37.2491C107.998 37.2491 107.812 37.1661 107.655 37.0001C107.501 36.8299 107.425 36.637 107.425 36.4211C107.425 36.1929 107.501 35.9936 107.655 35.8234C107.812 35.6533 107.998 35.5682 108.209 35.5682C108.445 35.5682 108.639 35.6491 108.788 35.811C108.942 35.9687 109.018 36.1534 109.018 36.3651ZM116.371 44.8879C116.176 44.9585 116.003 45.0145 115.854 45.056C115.708 45.1017 115.543 45.1245 115.356 45.1245C115.032 45.1245 114.773 45.0498 114.578 44.9004C114.387 44.7468 114.265 44.5248 114.211 44.2342H114.173C113.903 44.533 113.613 44.7613 113.302 44.9191C112.994 45.0768 112.623 45.1556 112.187 45.1556C111.727 45.1556 111.346 45.0145 111.048 44.7323C110.753 44.4501 110.606 44.0807 110.606 43.6241C110.606 43.3876 110.639 43.1759 110.705 42.9891C110.772 42.8023 110.872 42.6343 111.004 42.4849C111.108 42.3604 111.245 42.2503 111.415 42.1549C111.586 42.0553 111.745 41.9764 111.895 41.9183C112.081 41.8477 112.459 41.717 113.028 41.5261C113.6 41.3352 113.986 41.1858 114.186 41.0779V40.4615C114.186 40.4076 114.173 40.3038 114.148 40.1503C114.127 39.9967 114.079 39.8515 114.005 39.7144C113.922 39.5609 113.803 39.4281 113.65 39.316C113.5 39.1998 113.287 39.1417 113.009 39.1417C112.818 39.1417 112.639 39.1749 112.474 39.2413C112.312 39.3036 112.198 39.37 112.131 39.4405C112.131 39.5236 112.15 39.646 112.187 39.8078C112.228 39.9697 112.249 40.1191 112.249 40.2561C112.249 40.4014 112.183 40.5342 112.05 40.6546C111.922 40.7749 111.741 40.8351 111.508 40.8351C111.301 40.8351 111.148 40.7624 111.048 40.6171C110.953 40.4677 110.905 40.3018 110.905 40.1191C110.905 39.9282 110.971 39.7456 111.104 39.5713C111.241 39.397 111.417 39.2413 111.633 39.1044C111.82 38.9881 112.046 38.8906 112.312 38.8117C112.577 38.7287 112.837 38.6872 113.09 38.6872C113.438 38.6872 113.741 38.7121 113.999 38.7619C114.26 38.8076 114.497 38.9093 114.709 39.067C114.92 39.2206 115.08 39.4302 115.188 39.6958C115.3 39.9573 115.356 40.2955 115.356 40.7106C115.356 41.3041 115.35 41.8312 115.337 42.2919C115.325 42.7484 115.318 43.2485 115.318 43.7922C115.318 43.9541 115.345 44.0827 115.399 44.1782C115.458 44.2737 115.545 44.3546 115.661 44.421C115.723 44.4583 115.821 44.4791 115.954 44.4832C116.091 44.4874 116.23 44.4895 116.371 44.4895V44.8879ZM114.198 41.6008C113.845 41.7046 113.536 41.8063 113.27 41.9059C113.005 42.0055 112.758 42.13 112.53 42.2794C112.322 42.4205 112.158 42.5886 112.038 42.7837C111.917 42.9746 111.857 43.2028 111.857 43.4685C111.857 43.813 111.946 44.0662 112.125 44.228C112.307 44.3899 112.538 44.4708 112.816 44.4708C113.11 44.4708 113.37 44.4003 113.594 44.2591C113.818 44.1139 114.007 43.9437 114.16 43.7486L114.198 41.6008ZM123.704 44.8879L121.563 45.0249L121.469 44.9377V44.365L121.42 44.3525C121.204 44.5933 120.936 44.7904 120.616 44.944C120.301 45.0975 119.975 45.1743 119.639 45.1743C119.29 45.1743 118.952 45.0975 118.624 44.944C118.3 44.7862 118.018 44.5663 117.778 44.284C117.533 43.9977 117.338 43.6532 117.193 43.2506C117.052 42.848 116.981 42.4039 116.981 41.9183C116.981 41.4742 117.058 41.053 117.211 40.6546C117.364 40.2561 117.577 39.9075 117.846 39.6086C118.099 39.3306 118.408 39.1085 118.774 38.9425C119.143 38.7765 119.519 38.6935 119.901 38.6935C120.187 38.6935 120.467 38.7308 120.741 38.8055C121.019 38.8761 121.258 38.9674 121.457 39.0795V36.9441C121.457 36.7698 121.428 36.6121 121.37 36.4709C121.312 36.3256 121.231 36.2157 121.127 36.141C121.011 36.0621 120.853 36.0061 120.654 35.9729C120.459 35.9356 120.247 35.9086 120.019 35.892V35.506L122.528 35.3628L122.621 35.4562V43.7362C122.621 43.8814 122.648 44.0059 122.702 44.1097C122.761 44.2093 122.843 44.2944 122.951 44.365C123.03 44.4148 123.144 44.4459 123.294 44.4583C123.443 44.4708 123.58 44.4791 123.704 44.4832V44.8879ZM121.457 43.8109V40.2187C121.424 40.1108 121.37 39.9946 121.295 39.8701C121.22 39.7456 121.127 39.6315 121.015 39.5277C120.895 39.424 120.754 39.3388 120.592 39.2725C120.43 39.2019 120.241 39.1666 120.025 39.1666C119.776 39.1666 119.546 39.2309 119.334 39.3596C119.127 39.4882 118.942 39.673 118.78 39.9137C118.627 40.1461 118.504 40.4428 118.413 40.804C118.326 41.1609 118.282 41.5573 118.282 41.993C118.282 42.3417 118.315 42.6592 118.381 42.9455C118.448 43.2277 118.56 43.4913 118.718 43.7362C118.863 43.9686 119.047 44.1554 119.272 44.2965C119.5 44.4376 119.77 44.5081 120.081 44.5081C120.413 44.5081 120.687 44.4355 120.903 44.2903C121.123 44.145 121.308 43.9852 121.457 43.8109ZM130.285 41.8685C130.285 42.3001 130.216 42.7255 130.079 43.1448C129.943 43.5598 129.748 43.9126 129.494 44.2031C129.208 44.5351 128.876 44.7821 128.498 44.944C128.12 45.1058 127.697 45.1867 127.228 45.1867C126.838 45.1867 126.466 45.1141 126.114 44.9689C125.761 44.8195 125.448 44.6036 125.173 44.3214C124.904 44.0433 124.688 43.705 124.526 43.3066C124.369 42.904 124.29 42.4537 124.29 41.9557C124.29 40.9969 124.567 40.2125 125.124 39.6024C125.684 38.9923 126.417 38.6872 127.321 38.6872C128.181 38.6872 128.888 38.9778 129.445 39.5588C130.005 40.1357 130.285 40.9057 130.285 41.8685ZM128.996 41.881C128.996 41.5697 128.965 41.2418 128.903 40.8973C128.841 40.5487 128.747 40.254 128.623 40.0133C128.49 39.756 128.316 39.5505 128.1 39.397C127.884 39.2392 127.621 39.1604 127.309 39.1604C126.99 39.1604 126.715 39.2392 126.487 39.397C126.263 39.5547 126.081 39.7705 125.939 40.0444C125.806 40.2976 125.713 40.586 125.659 40.9098C125.605 41.2335 125.578 41.5468 125.578 41.8498C125.578 42.2483 125.609 42.6177 125.672 42.958C125.738 43.2942 125.842 43.5951 125.983 43.8607C126.124 44.1263 126.301 44.3359 126.512 44.4895C126.728 44.6389 126.994 44.7136 127.309 44.7136C127.828 44.7136 128.239 44.4625 128.542 43.9603C128.845 43.4581 128.996 42.765 128.996 41.881ZM135.228 41.993C135.398 42.1424 135.529 42.3147 135.62 42.5098C135.712 42.7048 135.757 42.9435 135.757 43.2257C135.757 43.7943 135.544 44.2591 135.116 44.6203C134.692 44.9813 134.143 45.1618 133.466 45.1618C133.109 45.1618 132.779 45.0975 132.476 44.9689C132.178 44.8402 131.964 44.7219 131.835 44.614L131.71 45.0187H131.244L131.182 42.8833H131.611C131.644 43.0452 131.715 43.234 131.823 43.4498C131.931 43.6657 132.061 43.8607 132.215 44.035C132.376 44.2177 132.57 44.3712 132.794 44.4957C133.022 44.6203 133.277 44.6825 133.56 44.6825C133.958 44.6825 134.265 44.5933 134.481 44.4148C134.697 44.2321 134.805 43.9728 134.805 43.6366C134.805 43.4623 134.77 43.3129 134.699 43.1884C134.632 43.0597 134.533 42.9476 134.4 42.8521C134.263 42.7567 134.095 42.6716 133.896 42.5969C133.696 42.5181 133.474 42.4413 133.23 42.3666C133.035 42.3085 132.817 42.2296 132.576 42.13C132.34 42.0262 132.136 41.9059 131.966 41.7689C131.783 41.6236 131.634 41.4452 131.518 41.2335C131.401 41.0218 131.344 40.7728 131.344 40.4864C131.344 39.9842 131.53 39.5588 131.904 39.2102C132.277 38.8615 132.777 38.6872 133.404 38.6872C133.645 38.6872 133.89 38.7184 134.139 38.7806C134.392 38.8429 134.597 38.9176 134.755 39.0047L134.898 38.681H135.346L135.439 40.6546H135.01C134.923 40.2146 134.734 39.8577 134.443 39.5837C134.157 39.3057 133.807 39.1666 133.391 39.1666C133.051 39.1666 132.784 39.2517 132.589 39.4219C132.394 39.592 132.296 39.7975 132.296 40.0382C132.296 40.225 132.327 40.3806 132.389 40.5051C132.456 40.6297 132.553 40.7355 132.682 40.8226C132.806 40.9057 132.962 40.9845 133.149 41.0592C133.339 41.1298 133.574 41.2107 133.852 41.302C134.126 41.3891 134.383 41.4908 134.624 41.6071C134.869 41.7232 135.07 41.8519 135.228 41.993Z" fill="white"/>
</g>
<defs>
<clipPath id="clip0_200_302">
<rect width="150" height="75" fill="white"/>
</clipPath>
</defs>
</svg>
